<?xml version="1.0" encoding="UTF-8"?>
<!DOCTYPE svg PUBLIC "-//W3C//DTD SVG 1.1//EN" "http://www.w3.org/Graphics/SVG/1.1/DTD/svg11.dtd">
<!-- Creator: CorelDRAW X8 -->
<svg xmlns="http://www.w3.org/2000/svg" xml:space="preserve" width="297mm" height="210mm" version="1.1" style="shape-rendering:geometricPrecision; text-rendering:geometricPrecision; image-rendering:optimizeQuality; fill-rule:evenodd; clip-rule:evenodd"
viewBox="0 0 29700 21000"
 xmlns:xlink="http://www.w3.org/1999/xlink">
 <defs>
  <style type="text/css">
   <![CDATA[
    .fil3 {fill:none}
    .fil0 {fill:#FEFEFE}
    .fil5 {fill:#2B2A29}
    .fil1 {fill:#E31E24}
    .fil6 {fill:#010101}
    .fil8 {fill:#020202}
    .fil7 {fill:#030303}
    .fil9 {fill:#040404}
    .fil4 {fill:#041D42}
    .fil11 {fill:#FEFEFE;fill-rule:nonzero}
    .fil2 {fill:#2B2A29;fill-rule:nonzero}
    .fil10 {fill:#2B2A29;fill-rule:nonzero}
    .fil12 {fill:black;fill-rule:nonzero}
   ]]>
  </style>
    <clipPath id="id0">
     <path d="M14927 14444c-4631,0 3729,0 0,0zm0 -5312c1396,0 2527,1132 2527,2528 0,1395 -1131,2527 -2527,2527 -1396,0 -2528,-1132 -2528,-2527 0,-22 1,-44 1,-65l2490 0 0 -2462c12,-1 24,-1 37,-1z"/>
    </clipPath>
 </defs>
 <g id="Слой_x0020_1">
  <metadata id="CorelCorpID_0Corel-Layer"/>
  <g id="_2538049998800">
   <path class="fil0" d="M14927 14444c-4631,0 3729,0 0,0zm0 -5312c1396,0 2527,1132 2527,2528 0,1395 -1131,2527 -2527,2527 -1396,0 -2528,-1132 -2528,-2527 0,-22 1,-44 1,-65l2490 0 0 -2462c12,-1 24,-1 37,-1z"/>
   <g style="clip-path:url(#id0)">
    <g>
     <path id="1" class="fil1" d="M14883 10515l3005 0 0 527 -3005 0 0 -527zm-2917 3335l5922 0 0 526 -5922 0 0 -526zm0 -1157l5922 0 0 527 -5922 0 0 -527zm0 -1096l5922 0 0 526 -5922 0 0 -526zm2917 -2100l3005 0 0 526 -3005 0 0 -526z"/>
     <path class="fil2" d="M14883 10498l3022 0 0 561 -3039 0 0 -561 17 0zm2988 34l-2971 0 0 493 2971 0 0 -493zm-5905 3301l5939 0 0 560 -5956 0 0 -560 17 0zm5905 34l-5888 0 0 492 5888 0 0 -492zm-5905 -1191l5939 0 0 561 -5956 0 0 -561 17 0zm5905 34l-5888 0 0 493 5888 0 0 -493zm-5905 -1130l5939 0 0 560 -5956 0 0 -560 17 0zm5905 34l-5888 0 0 492 5888 0 0 -492zm-2988 -2134l3022 0 0 560 -3039 0 0 -560 17 0zm2988 34l-2971 0 0 492 2971 0 0 -492z"/>
    </g>
   </g>
   <path class="fil3" d="M14927 14444c-4631,0 3729,0 0,0zm0 -5312c1396,0 2527,1132 2527,2528 0,1395 -1131,2527 -2527,2527 -1396,0 -2528,-1132 -2528,-2527 0,-22 1,-44 1,-65l2490 0 0 -2462c12,-1 24,-1 37,-1z"/>
   <path class="fil4" d="M12400 11595c34,-1354 1133,-2488 2490,-2507l0 2507 -2490 0z"/>
   <g>
    <polygon class="fil0" points="13169,10241 13215,10383 13364,10382 13243,10470 13290,10611 13169,10524 13049,10611 13095,10470 12974,10382 13123,10383 "/>
    <polygon class="fil0" points="13892,10241 13938,10383 14087,10382 13966,10470 14012,10611 13892,10524 13772,10611 13818,10470 13697,10382 13846,10383 "/>
    <polygon class="fil0" points="14615,10241 14661,10383 14810,10382 14689,10470 14735,10611 14615,10524 14494,10611 14541,10470 14420,10382 14569,10383 "/>
    <polygon class="fil0" points="12796,10673 12842,10815 12991,10815 12870,10902 12917,11044 12796,10956 12676,11044 12722,10902 12601,10815 12750,10815 "/>
    <polygon class="fil0" points="13519,10673 13565,10815 13714,10815 13593,10902 13639,11044 13519,10956 13398,11044 13445,10902 13324,10815 13473,10815 "/>
    <polygon class="fil0" points="14242,10673 14287,10815 14436,10815 14316,10902 14362,11044 14242,10956 14121,11044 14168,10902 14047,10815 14196,10815 "/>
    <polygon class="fil0" points="13169,11096 13215,11237 13364,11237 13243,11324 13290,11466 13169,11378 13049,11466 13095,11324 12974,11237 13123,11237 "/>
    <polygon class="fil0" points="13892,11096 13938,11237 14087,11237 13966,11324 14012,11466 13892,11378 13772,11466 13818,11324 13697,11237 13846,11237 "/>
    <polygon class="fil0" points="14615,11096 14661,11237 14810,11237 14689,11324 14735,11466 14615,11378 14494,11466 14541,11324 14420,11237 14569,11237 "/>
   </g>
   <path class="fil5" d="M14927 8876c1537,0 2784,1246 2784,2784 0,1537 -1247,2784 -2784,2784 -1538,0 -2784,-1247 -2784,-2784 0,-1538 1246,-2784 2784,-2784zm0 256c1396,0 2527,1132 2527,2528 0,1395 -1131,2527 -2527,2527 -1396,0 -2528,-1132 -2528,-2527 0,-1396 1132,-2528 2528,-2528z"/>
   <path class="fil6" d="M13899 5025c-71,-71 -298,-318 -377,-327 -11,89 -17,529 15,592 83,39 1192,18 1340,-3 13,-100 35,-489 17,-572 -105,-3 -251,243 -360,302 -77,-37 -221,-313 -317,-376 -96,32 -231,316 -318,384z"/>
   <path class="fil0" d="M13867 5811c3,307 -317,234 -282,27 28,-170 345,-230 373,-43l-91 16zm3020 6360c110,-38 360,-277 447,-364 820,-824 611,-2170 -46,-3064 -189,-257 -572,-672 -885,-794 -85,79 -118,190 -349,153 -140,-22 -267,-93 -411,-103 -197,-15 -266,54 -433,86 -277,53 -212,-88 -208,-269 -206,-50 -368,-69 -542,-206 -244,-193 57,-720 116,-1182 34,-268 5,-401 -155,-608 78,-78 204,-119 215,-241 -201,-10 -394,13 -593,13 -170,0 -383,-34 -506,98 -366,396 -788,47 -940,117 -64,55 -59,83 -9,146 46,95 624,106 780,170 43,17 68,32 114,44 51,15 98,13 145,29 18,236 -521,295 -614,455 144,29 764,-132 925,-189 -6,196 -265,620 -386,784 -168,228 -384,477 -409,780 -38,463 328,856 723,1056 103,52 339,161 448,150 -4,-114 -42,-233 -17,-348 70,-3 218,315 200,422 -25,151 -200,265 -300,358 -68,62 -71,99 -172,145 -98,44 -192,33 -299,33 -228,-2 -295,34 -366,138 -17,24 -18,77 -40,107l-18 86c92,-9 122,-79 202,-111 50,-40 104,-121 163,-86 -21,75 -88,136 -100,223 88,-23 213,-90 304,-127 106,-42 211,-86 318,-128 169,-66 377,-229 554,-325 93,-50 189,-96 277,-155 151,-102 82,-177 82,-357 0,-230 138,-507 393,-485 -65,122 -153,154 -197,328 -29,111 9,329 84,413 275,20 892,-21 1088,158 636,581 759,1303 295,2048 -775,671 -833,711 -1183,1137 -211,294 -314,666 -246,1026 43,232 155,404 321,546 183,155 526,232 664,149 -329,-38 -571,-203 -672,-528 -275,-891 905,-1348 1238,-1728z"/>
   <path class="fil7" d="M13867 5811l91 -16c-28,-187 -345,-127 -373,43 -35,207 285,280 282,-27z"/>
   <path class="fil8" d="M15282 9509c439,-44 803,-41 1088,115 537,293 752,956 356,1661 -45,144 -75,145 -149,258 -248,241 -547,480 -819,696 -514,474 -627,572 -651,1213 21,595 547,1412 1407,1137 129,-56 404,-236 407,-373 -233,-11 -223,184 -597,-34 -41,-29 -133,-33 -140,20 -2,16 -7,71 -47,90 -34,10 -248,-118 -361,-521 -46,-322 112,-518 288,-739l265 -236 332 -233c152,-98 275,-179 421,-282l213 -155c458,-351 1191,-1112 578,-2742 -193,-513 -515,-990 -935,-1327 -161,-130 -425,-260 -467,-297 9,-187 295,-77 641,-122 152,-20 487,-133 493,-304 -117,-98 -637,-85 -648,-300 55,-56 342,-199 443,-275 96,-73 353,-315 238,-453 -110,-22 -866,456 -530,-156 93,-170 424,-653 299,-838 -64,-7 -94,83 -134,138 -157,211 -260,262 -479,414 -305,213 -1111,801 -1233,1131 -78,207 -79,819 -332,854 9,-120 71,-337 101,-464 108,-447 65,-607 499,-958 56,-45 96,-103 153,-150 168,-139 453,-415 579,-588 105,-145 433,-670 274,-830 -17,8 -277,230 -320,265 -441,357 -1092,524 -1400,977 -96,140 -140,284 -145,456 -11,404 210,570 37,1033 -129,21 -381,-29 -430,-171 -31,-92 75,-402 105,-509 234,-847 -9,-906 4,-1059 2,-33 207,-224 181,-435 -271,-24 -651,3 -939,-2 -603,-9 -457,198 -681,275 -220,76 -697,-147 -772,76 -34,101 -48,330 72,372 128,46 290,16 408,74 -139,97 -627,141 -780,73l7 -147 -26 4c-108,5 -379,111 -418,212 137,13 275,67 390,146l26 -57c745,143 1068,-283 1230,-142 -66,139 -550,172 -619,261 -51,194 238,250 383,237 177,-16 396,-118 521,-123 -40,413 -1093,1043 -566,1989 52,93 136,199 206,270 44,44 74,69 121,110 18,16 44,34 69,51l1 0 2 2 3 2 2 2 3 1 2 2 3 2 675 282c-45,373 -511,234 -757,406 -142,99 -200,390 -118,436 28,16 216,-173 249,-168 5,1 -78,189 -74,189 166,13 167,-14 242,-43 81,-30 233,-71 549,-216 102,-55 298,-140 409,-193 382,-151 292,-187 592,-290zm-1556 333c107,0 201,11 299,-33 101,-46 104,-83 172,-145 100,-93 275,-207 300,-358 18,-107 -130,-425 -200,-422 -25,115 13,234 17,348 -109,11 -345,-98 -448,-150 -395,-200 -761,-593 -723,-1056 25,-303 241,-552 409,-780 121,-164 380,-588 386,-784 -161,57 -781,218 -925,189 93,-160 632,-219 614,-455 -47,-16 -94,-14 -145,-29 -46,-12 -71,-27 -114,-44 -156,-64 -734,-75 -780,-170 -22,-45 -31,-96 9,-146 152,-70 574,279 940,-117 123,-132 336,-98 506,-98 199,0 392,-23 593,-13 -11,122 -137,163 -215,241 160,207 189,340 155,608 -59,462 -360,989 -116,1182 174,137 336,156 542,206 -4,181 -69,322 208,269 167,-32 236,-101 433,-86 144,10 271,81 411,103 231,37 264,-74 349,-153 313,122 696,537 885,794 657,894 866,2240 46,3064 -53,52 -164,160 -268,246l0 0c-55,45 -108,84 -150,105l-76 54c-521,403 -1459,819 -1191,1687 101,325 384,546 713,584 -138,84 -522,-50 -705,-205 -166,-142 -278,-314 -321,-546 -68,-360 35,-732 246,-1026 271,-330 376,-370 735,-692l17 -14 336 -303c33,-39 66,-82 95,-128 319,-514 469,-1167 173,-1590 -544,-778 -989,-615 -1556,-616 -75,-84 -113,-302 -84,-413 44,-174 132,-206 197,-328 -255,-22 -393,255 -393,485 0,180 69,255 -82,357 -88,59 -184,105 -277,155 -177,96 -385,259 -554,325 -107,42 -212,86 -318,128 -91,37 -216,104 -304,127 12,-87 79,-148 100,-223 -59,-35 -136,22 -185,63 -14,11 -162,156 -163,106 -4,-191 285,-313 407,-303z"/>
  </g>
  <path class="fil8" d="M9944 6337c-148,75 54,1414 351,1657 555,455 1263,-390 364,-626 -75,-19 -424,-61 -330,74 62,90 289,102 395,139 401,142 44,492 -264,307 -425,-254 -305,-1659 -516,-1551z"/>
  <path class="fil9" d="M18170 12955c22,103 -208,1153 129,910 129,-93 328,-631 393,-799 108,-280 226,-593 306,-881 35,-128 234,-869 267,-923 62,162 -31,1750 205,1855 273,49 282,-513 304,-700 37,-300 79,-598 121,-896 112,192 21,1260 276,1385 217,8 176,-298 253,-430 53,71 13,264 154,316 145,53 207,-101 274,-182 61,23 102,97 207,18 50,-38 74,-103 115,-147 213,41 89,22 260,-31 77,43 162,176 286,241 97,51 315,121 411,56 8,-103 -206,-148 -280,-187 -109,-58 -175,-137 -260,-224 -181,-184 -230,4 -329,-38 -171,-71 -173,-22 -268,117 -62,-26 -115,-127 -215,-37 -55,50 -76,147 -135,177 -55,-158 16,-544 -99,-641 -233,-94 -245,475 -333,633 -30,-53 -84,-675 -96,-792 -19,-178 -2,-674 -267,-628 -144,128 -167,602 -191,806 -17,144 -85,764 -131,849 -112,-351 -1,-1872 -163,-2039 -170,-31 -175,155 -213,284l-321 1137c-58,190 -445,1340 -533,1396 -45,-148 235,-1698 254,-2039 18,-330 27,-758 -47,-1080 -92,-403 -235,-246 -246,-183 -16,80 -13,440 -13,543 5,1316 -116,2142 -754,3256 -54,95 -202,262 -119,366 121,20 201,-213 257,-304 146,-241 274,-502 385,-761 27,-64 128,-392 156,-403z"/>
  <path class="fil9" d="M12092 9527c-194,708 -326,1140 -372,1894 -56,916 16,1993 672,2702 67,72 252,236 348,238 231,6 -94,-222 -121,-245 -900,-775 -820,-2609 -608,-3661 56,-276 146,-620 246,-883 49,-129 97,-400 -139,-287 -75,36 -233,209 -291,279 -353,420 -664,884 -867,1396 -317,796 -33,1743 -238,2011 -167,-279 184,-2117 -86,-2278 -174,-61 -242,367 -257,477 -10,-200 -53,-753 -360,-387 -75,89 -332,541 -379,565 -53,-81 -63,-530 -358,-259 -90,83 -275,377 -364,399 -190,-81 -190,-244 -474,-18 -94,75 -271,288 -379,303 -101,-37 -172,-190 -335,-246 -115,-39 -342,-37 -407,85 113,116 268,8 417,112 94,65 175,203 297,221 252,37 440,-384 645,-406 150,49 202,261 434,15 76,-80 212,-317 300,-347 54,71 98,639 400,195 72,-105 273,-495 364,-533 83,144 -26,765 65,905 113,174 209,-96 227,-183 20,-96 49,-344 80,-416 49,66 -56,1470 -14,1757 58,397 321,292 389,-40 166,-815 -207,-1218 392,-2310 132,-241 560,-919 773,-1055z"/>
  <path class="fil9" d="M19525 5830c-101,119 -85,987 -94,1195 -13,317 -56,854 157,1106 213,252 702,282 886,-18 320,-521 -273,-1134 -740,-928 -113,50 -81,166 53,146 156,-24 113,-53 266,27 127,67 291,188 307,336 21,193 9,379 -208,423 -521,104 -530,-398 -527,-761 3,-300 -16,-997 30,-1256 146,25 575,337 744,232 67,-173 -281,-237 -409,-294 -80,-35 -160,-72 -235,-116 -91,-54 -127,-145 -230,-92z"/>
  <path class="fil9" d="M18961 7218c16,-103 297,-275 123,-819 -78,-246 -238,-479 -505,-536 -689,-148 -540,466 -328,232 92,-102 282,-77 396,-6 108,67 178,172 226,287 110,261 123,600 -144,770 -59,38 -409,80 -256,232 101,101 226,-87 423,35 239,149 202,577 12,737 -363,305 -608,-163 -748,-72 -120,210 504,579 916,180 153,-148 196,-373 172,-579 -36,-307 -151,-288 -287,-461z"/>
  <path class="fil9" d="M21728 6651c128,-234 -314,-452 -606,-92 -189,233 -232,595 -181,883 43,243 137,598 361,738 246,155 637,57 814,-143 75,-83 166,-305 118,-420 -35,-87 -128,-75 -163,8 -25,61 -34,136 -62,201 -110,247 -533,328 -711,49 -150,-234 -204,-640 -146,-908 26,-124 93,-281 198,-358 251,-185 196,135 378,42z"/>
  <path class="fil9" d="M9543 8292c9,-15 30,-11 29,-36 -5,-199 -286,-693 -350,-832 -65,-141 -117,-285 -179,-424 -117,-264 223,-75 253,-271 25,-158 -377,-13 -458,3 -156,32 -359,75 -516,88 -91,8 -207,-65 -214,62 -13,244 614,6 698,44 132,113 528,1447 737,1366z"/>
  <path class="fil9" d="M11017 6366c19,309 112,1397 232,1675 43,100 162,86 168,-43 3,-71 -28,-200 -42,-274 -71,-391 -117,-728 -152,-1124 -13,-144 -10,-457 -54,-579 -37,-104 -151,-100 -160,36 -4,80 3,226 8,309z"/>
  <path class="fil9" d="M10337 7381c0,0 0,0 0,0z"/>
  <polygon class="fil0" points="14231,12091 14231,13075 14045,13075 14045,12091 13853,12091 13853,11905 14045,11905 14231,11905 14422,11905 14422,12091 "/>
  <path class="fil10" d="M14252 12113l0 983 -229 0 0 -983 -191 0 0 -229 611 0 0 229 -191 0zm-42 940l0 -983 191 0 0 -144 -526 0 0 144 191 0 0 983 144 0z"/>
  <polygon class="fil0" points="15350,12091 15350,13075 15164,13075 15164,12091 14972,12091 14972,11905 15164,11905 15350,11905 15541,11905 15541,12091 "/>
  <path class="fil10" d="M15371 12113l0 983 -229 0 0 -983 -191 0 0 -229 611 0 0 229 -191 0zm-42 940l0 -983 191 0 0 -144 -526 0 0 144 191 0 0 983 144 0z"/>
  <polygon class="fil0" points="14365,13075 14542,13075 14589,12852 14790,12852 14838,13076 15026,13075 14775,11905 14600,11905 "/>
  <path class="fil10" d="M14391 13053l134 0 47 -223 235 0 49 225 144 -1 -242 -1128 -141 0 -226 1127zm151 43l-203 0c81,-404 162,-808 243,-1212l210 0 260 1212 -231 1 -48 -224 -167 0 -47 223 -17 0z"/>
  <polygon class="fil0" points="12901,11908 13088,11908 13088,12891 13257,12891 13257,11908 13443,11908 13443,12891 13591,12891 13591,11905 13778,11905 13778,12891 13778,13075 13778,13077 13443,13077 13257,13077 13088,13077 12901,13077 12901,12891 "/>
  <path class="fil10" d="M12901 11887l208 0 0 983 126 0 0 -983 229 0 0 983 106 0 0 -986 229 0 0 1215 -919 0 0 -1212 21 0zm165 42l-143 0 0 1127 833 0 0 -1130 -143 0 0 986 -191 0 0 -983 -144 0 0 983 -212 0 0 -983z"/>
  <polygon class="fil0" points="14622,12672 14761,12671 14689,12318 "/>
  <path class="fil10" d="M14643 12655l97 0 -51 -248 -46 248zm118 33l-159 2 86 -460 93 458 -20 0z"/>
  <path class="fil11" d="M16236 13066c-30,0 -58,-3 -84,-8 -26,-6 -50,-15 -72,-27 -22,-12 -42,-26 -59,-44 -17,-17 -32,-38 -44,-61 -11,-23 -21,-48 -28,-76 -6,-28 -11,-58 -13,-90 0,-7 0,-15 0,-21l191 0 0 19c1,22 5,40 10,56 5,15 12,28 21,38 9,10 20,18 33,22 13,6 28,8 45,8 19,0 34,-3 48,-8 13,-6 25,-14 34,-25 10,-11 17,-24 22,-40 5,-17 8,-36 8,-58l0 -196c0,-22 -3,-41 -8,-58 -4,-15 -12,-29 -21,-40 -9,-10 -20,-18 -33,-24 -13,-5 -28,-8 -46,-8 -12,0 -23,2 -34,5 -10,4 -20,9 -29,16 -8,7 -16,15 -23,25 -6,10 -12,22 -16,35l-4 13 -173 0 0 -635 557 0 0 183 -366 0 0 207c11,-7 23,-13 35,-18 12,-5 25,-9 38,-12 13,-3 26,-4 39,-4 29,0 55,3 80,9 25,7 48,16 68,28 21,13 40,29 55,47 16,18 29,39 40,63 11,24 19,49 24,78 5,28 8,58 8,90l0 196c0,32 -3,62 -9,90 -6,29 -14,55 -26,78 -12,24 -27,46 -44,64 -18,18 -38,34 -61,46 -23,13 -48,22 -75,28 -28,6 -57,9 -88,9zm715 -11l-173 0 0 -955 -167 102 0 -202 173 -116 185 0 0 1171 -18 0z"/>
  <path class="fil12" d="M16236 13083c-15,0 -30,0 -45,-2 -14,-1 -29,-4 -42,-7 -14,-3 -28,-7 -40,-11 -13,-5 -25,-10 -37,-17 -12,-6 -23,-13 -34,-21 -10,-8 -20,-17 -29,-26 -9,-9 -18,-20 -25,-30 -8,-11 -15,-23 -22,-35 -6,-12 -11,-25 -16,-38 -5,-13 -9,-27 -13,-42 -4,-14 -7,-30 -9,-45 -2,-15 -4,-32 -5,-48 0,-5 0,-11 0,-16l0 -23 225 0 0 36c1,10 2,19 3,27 2,9 4,17 6,24 2,6 5,12 8,18 3,5 6,10 10,14 4,4 8,7 12,10 4,3 9,6 14,8 5,2 11,3 18,4 6,2 13,2 21,2 9,0 16,-1 23,-2 7,-1 13,-3 19,-5 5,-2 10,-5 15,-8 4,-4 8,-7 12,-12 4,-4 8,-10 11,-15 3,-6 6,-12 8,-19 2,-8 4,-16 5,-24 1,-9 2,-19 2,-29l0 -196c0,-11 -1,-20 -2,-29 -1,-8 -3,-16 -5,-24 -2,-7 -5,-13 -8,-19 -3,-5 -6,-10 -10,-15 -3,-4 -7,-8 -12,-11 -4,-3 -9,-6 -14,-8 -6,-2 -12,-4 -18,-5 -7,-1 -14,-2 -22,-2 -5,0 -10,1 -15,1 -5,1 -9,2 -13,3 -5,2 -9,4 -13,6 -4,2 -7,4 -11,7 -4,3 -7,6 -10,10 -4,3 -7,7 -9,11 -3,5 -6,9 -8,14 -3,6 -5,11 -7,17l-7 25 -203 0 0 -669 591 0 0 218 -366 0 0 160 11 -5c7,-3 14,-5 21,-7 7,-2 14,-4 21,-6 7,-1 14,-2 21,-3 8,0 15,-1 21,-1 15,0 29,1 43,3 14,1 28,4 41,7 13,3 26,7 38,12 12,5 24,11 35,18 11,7 22,14 32,23 10,8 19,17 27,27 9,10 16,20 23,31 7,12 14,24 19,36 6,13 11,26 15,39 4,14 8,28 11,43 2,15 4,30 6,45 1,15 2,32 2,48l0 196c0,16 -1,32 -2,48 -2,16 -4,31 -7,46 -3,14 -7,29 -12,42 -4,14 -10,27 -16,40 -6,13 -13,25 -21,36 -8,11 -17,22 -26,32 -9,9 -19,18 -30,27 -11,8 -23,16 -35,22 -12,7 -25,13 -38,18 -13,4 -27,8 -42,12 -14,3 -29,5 -44,7 -15,2 -31,2 -47,2zm-41 -36c13,2 27,2 41,2 16,0 30,0 44,-2 13,-1 27,-4 40,-6 13,-3 25,-7 37,-11 12,-5 23,-10 34,-16 11,-5 21,-12 30,-19 9,-7 18,-15 26,-24 9,-8 16,-18 23,-27 7,-10 13,-21 19,-32 5,-11 10,-23 14,-35 4,-13 8,-26 11,-39 2,-14 4,-28 6,-42 1,-14 2,-29 2,-45l0 -196c0,-16 -1,-31 -2,-45 -1,-15 -3,-29 -6,-42 -2,-14 -5,-27 -9,-39 -4,-12 -8,-24 -13,-35 -6,-11 -11,-22 -17,-32 -6,-9 -13,-18 -20,-27 -8,-8 -16,-16 -24,-24 -9,-7 -18,-13 -27,-19 -10,-6 -20,-11 -31,-15 -10,-5 -21,-8 -33,-11 -12,-3 -24,-5 -36,-7 -13,-1 -26,-2 -40,-2 -6,0 -12,0 -18,1 -5,1 -12,2 -18,3 -6,1 -12,2 -17,4 -6,2 -12,4 -18,6 -5,3 -10,5 -16,8 -5,3 -11,6 -15,9l-27 17 0 -255 366 0 0 -149 -523 0 0 601 144 0 0 -1c2,-7 5,-14 8,-21 3,-6 6,-13 10,-18 4,-6 8,-12 13,-16 4,-5 9,-10 14,-14l0 0c5,-4 11,-7 16,-10 6,-3 12,-6 18,-8 6,-2 13,-3 19,-4 7,-1 13,-2 20,-2 10,0 19,1 28,3 9,1 17,4 25,7 7,3 15,7 21,12 7,4 13,10 18,16 6,7 10,14 14,22 4,8 8,16 11,25 2,9 4,18 6,29 1,11 2,22 2,33l0 196c0,11 -1,22 -2,33 -2,11 -4,21 -7,30 -3,9 -6,17 -10,25 -4,8 -9,15 -15,21 -6,7 -12,12 -19,17 -6,5 -14,9 -22,12 -8,4 -16,6 -25,8 -9,1 -19,2 -29,2 -9,0 -18,-1 -27,-2 -9,-2 -17,-4 -25,-7 -7,-3 -14,-6 -20,-11 -7,-4 -13,-10 -18,-15 -5,-6 -10,-13 -15,-21 -4,-7 -7,-15 -10,-24 -3,-8 -6,-18 -7,-28 -2,-10 -3,-20 -4,-32l0 -3 -157 0 0 3c1,15 3,30 5,45 2,15 5,29 8,42 3,13 7,26 12,38 4,12 9,24 15,34 5,11 11,21 18,31 7,9 14,18 22,26 8,9 17,16 26,23 9,7 19,13 29,18 10,6 21,11 32,15 12,4 24,7 36,10 12,3 25,5 39,6zm756 25l-190 0 0 -942 -167 103 0 -242 185 -124 207 0 0 1205 -35 0zm-156 -34l157 0 0 -1137 -163 0 -161 108 0 163 167 -103 0 969z"/>
 </g>
</svg>
