<svg width="152" height="35" viewBox="0 0 152 35" fill="none" xmlns="http://www.w3.org/2000/svg">
<mask id="mask0_164_110" style="mask-type:luminance" maskUnits="userSpaceOnUse" x="0" y="0" width="152" height="35">
<path d="M152 0H0V34.8092H152V0Z" fill="white"/>
</mask>
<g mask="url(#mask0_164_110)">
<path d="M87.5012 9.02284H84.0007V24.8725H87.5012V9.02284Z" fill="black"/>
<path d="M54.9127 9.02284L50.4047 18.0567L46.1608 9.02284H42.1191L48.3625 22.2887L43.8057 31.2122H47.8795L59.0177 9.02284H54.9127Z" fill="black"/>
<path d="M80.5953 0.464111H77.1268V24.8725H80.5953V0.464111Z" fill="black"/>
<path d="M66.8476 12.0026C67.7849 12.0091 68.7018 12.2766 69.4945 12.7747C70.2874 13.2727 70.9246 13.9818 71.3343 14.8215H74.9292C74.4506 13.055 73.3977 11.4962 71.935 10.3892C70.4723 9.28216 68.6825 8.68936 66.8457 8.70349C62.2628 8.70349 58.6339 12.4128 58.6339 16.9458C58.6339 21.5106 62.2628 25.188 66.8457 25.188C70.7602 25.188 73.9741 22.5248 74.9292 18.8793H71.3343C70.9458 19.7427 70.3164 20.4766 69.5207 20.9939C68.7253 21.5109 67.7974 21.7894 66.8476 21.7961C64.2058 21.7961 61.946 19.577 61.946 16.9458C61.946 14.1896 64.2058 12.0026 66.8476 12.0026Z" fill="black"/>
<path d="M85.7513 2.7141C84.4786 2.7141 83.5557 3.66539 83.5557 4.87023C83.5557 6.10604 84.4786 7.15217 85.7513 7.15217C86.9921 7.15217 87.9471 6.10604 87.9471 4.87023C87.9487 4.58406 87.8927 4.30047 87.7825 4.03618C87.6722 3.7719 87.51 3.53223 87.3055 3.33132C87.1008 3.13041 86.8579 2.97229 86.5911 2.8663C86.3242 2.76031 86.0386 2.70855 85.7513 2.7141Z" fill="black"/>
<path d="M129.639 3.95087H126.201V21.4176C126.201 23.5099 127.824 24.8725 129.765 24.8725H134.762V21.4486H130.584C130.334 21.4486 130.095 21.3496 129.917 21.1734C129.741 20.9972 129.641 20.7581 129.641 20.509V12.4467H134.765V9.0228H129.641L129.639 3.95087Z" fill="black"/>
<path d="M98.3896 8.70544C96.0345 8.70544 93.9981 9.46608 92.3746 11.0832C90.9487 12.6688 90.1649 14.7252 90.175 16.8538C90.175 19.1358 91.0027 21.292 92.4659 22.7813C94.0253 24.2397 96.0948 25.1909 98.3858 25.1909C100.677 25.1909 102.777 24.2397 104.369 22.6864C105.069 22.0206 105.515 21.2599 105.96 20.3406L101.887 20.4345C100.996 21.3538 99.8188 21.8291 98.3896 21.8291C96.9896 21.8291 95.78 21.3858 94.9211 20.4664C94.3174 19.8786 93.8766 19.1452 93.6415 18.3373H106.537L106.548 18.0626C106.582 17.718 106.632 17.2448 106.632 16.848C106.629 12.1613 103.064 8.70544 98.3896 8.70544ZM93.7212 15.1409C94.4013 13.2741 96.1822 12.0025 98.3896 12.0025C100.57 12.0025 102.318 13.2723 103.016 15.1409H93.7212Z" fill="black"/>
<path d="M116.685 8.70544C115.215 8.70544 113.824 9.12158 112.771 10.1183V9.02286H109.333V24.8725H112.769V15.7429C112.769 13.7106 114.296 11.9387 116.302 11.9387C118.402 11.9387 119.929 13.6806 119.929 15.7429V24.8725H123.367V15.4854C123.368 11.5583 120.632 8.70544 116.685 8.70544Z" fill="black"/>
<path d="M147.142 15.2087H142.172C141.814 15.1992 141.473 15.0504 141.222 14.7942C140.971 14.5381 140.832 14.1946 140.832 13.8369C140.832 13.4792 140.971 13.1357 141.222 12.8795C141.473 12.6233 141.814 12.4746 142.172 12.4651H151.079V9.01509H142.172C140.884 9.01509 139.649 9.52488 138.738 10.4324C137.827 11.3397 137.315 12.5705 137.315 13.8538C137.315 15.1371 137.827 16.3679 138.738 17.2752C139.649 18.1827 140.884 18.6925 142.172 18.6925H147.142C147.322 18.6888 147.5 18.7214 147.666 18.7881C147.833 18.855 147.985 18.9546 148.113 19.0812C148.239 19.2077 148.339 19.3585 148.407 19.5246C148.473 19.6905 148.506 19.8684 148.503 20.0474C148.502 20.4095 148.359 20.7572 148.105 21.0164C147.852 21.2755 147.505 21.4259 147.142 21.4351H137.946V24.8861H147.142C148.431 24.8861 149.667 24.3763 150.577 23.4688C151.488 22.5614 152 21.3307 152 20.0474C152 18.764 151.488 17.5333 150.577 16.6259C149.667 15.7184 148.431 15.2087 147.142 15.2087Z" fill="black"/>
<mask id="mask1_164_110" style="mask-type:luminance" maskUnits="userSpaceOnUse" x="0" y="0" width="35" height="35">
<path d="M34.8092 0H0V34.8092H34.8092V0Z" fill="white"/>
</mask>
<g mask="url(#mask1_164_110)">
<path d="M0 10.3963C0 6.75728 0 4.93775 0.708209 3.54781C1.33116 2.32519 2.32519 1.33116 3.54781 0.708209C4.93775 0 6.75728 0 10.3963 0H24.4128C28.0519 0 29.8714 0 31.2613 0.708209C32.484 1.33116 33.4779 2.32519 34.1009 3.54781C34.8092 4.93775 34.8092 6.75728 34.8092 10.3963V24.4128C34.8092 28.0519 34.8092 29.8714 34.1009 31.2613C33.4779 32.484 32.484 33.4779 31.2613 34.1009C29.8714 34.8092 28.0519 34.8092 24.4128 34.8092H10.3963C6.75728 34.8092 4.93775 34.8092 3.54781 34.1009C2.32519 33.4779 1.33116 32.484 0.708209 31.2613C0 29.8714 0 28.0519 0 24.4128V10.3963Z" fill="#FFCB00"/>
<path d="M15.5003 28.6698L27.4952 10.1926C27.7366 9.8208 27.8573 9.6349 27.8466 9.48106C27.8375 9.34701 27.7703 9.22359 27.6626 9.14294C27.5391 9.05038 27.3172 9.05038 26.8735 9.05038H20.7872C20.3472 9.05038 20.1272 9.05038 19.9279 9.11147C19.7515 9.16556 19.5877 9.25418 19.4459 9.37218C19.2858 9.50549 19.1657 9.68949 18.9253 10.0575L11.3126 21.7133C11.0267 22.1509 10.8838 22.3696 10.828 22.6057C10.7787 22.8142 10.7784 23.0313 10.8272 23.2399C10.8825 23.476 11.0249 23.6952 11.3096 24.1335L14.2568 28.67C14.464 28.989 14.5676 29.1484 14.6991 29.2035C14.814 29.2518 14.9433 29.2518 15.0582 29.2035C15.1897 29.1483 15.2932 28.9887 15.5003 28.6698Z" fill="black"/>
<path d="M7.3047 10.1802L10.9679 15.9038C11.1724 16.2232 11.2746 16.3829 11.4055 16.4389C11.5199 16.4878 11.6493 16.4889 11.7646 16.4416C11.8964 16.3877 12.001 16.2297 12.2105 15.9135L16.0015 10.1899C16.2469 9.81938 16.3696 9.63412 16.3597 9.48065C16.3511 9.34692 16.2843 9.22359 16.1766 9.14294C16.0529 9.05038 15.8298 9.05038 15.3833 9.05038H7.92911C7.48984 9.05038 7.27022 9.05038 7.14714 9.14165C7.0399 9.22119 6.97258 9.34301 6.96259 9.47563C6.95112 9.62779 7.06899 9.81194 7.3047 10.1802Z" fill="black"/>
</g>
</g>
</svg>
