<?xml version="1.0" encoding="utf-8"?>
<!-- Generator: Adobe Illustrator 26.1.0, SVG Export Plug-In . SVG Version: 6.00 Build 0)  -->
<svg version="1.1" id="Layer_1" xmlns="http://www.w3.org/2000/svg" xmlns:xlink="http://www.w3.org/1999/xlink" x="0px" y="0px"
	 width="812px" height="314px" viewBox="0 0 812 314" style="enable-background:new 0 0 812 314;" xml:space="preserve">
<g transform="translate(0.000000,975.000000) scale(0.100000,-0.100000)">
	<path d="M7467,9514c-4-4-7-59-7-123c0-105,2-117,23-139l22-24v-398c0-397,0-398-22-429c-21-27-23-41-23-151v-120h265h265v121
		c0,109-2,124-22,152l-23,32l-5,540l-5,540l-231,3C7577,9519,7471,9517,7467,9514z"/>
	<path d="M6270,9095v-385h201c201,0,201,0,231,26c41,34,93,30,122-9c19-26,21-42,21-174v-145l-28-24c-36-30-68-30-104,0
		c-26,22-27,29-31,125l-4,101h-204h-204v-189v-190l29-20c16-12,36-21,45-21s19-7,22-15c6-16,127-65,214-86c35-9,111-14,205-14
		c130,0,160,4,220,24c86,28,118,48,171,104c76,80,111,227,100,422c-13,234-70,338-211,385c-106,35-204,36-357,4l-28-6v91v91h51
		c63,0,87-13,105-56l14-34l198,2l197,3l3,179c2,137-1,181-10,188c-7,4-228,8-490,8h-478V9095z"/>
	<path d="M180,9350c0-110,2-124,23-151c22-31,22-32,22-417c0-387,0-387-23-419c-21-30-22-41-20-150l3-118l893-3l892-2v127
		c0,118-2,128-22,151l-23,24v386c0,385,0,387,23,419c20,28,22,43,22,152v121h-265h-265v-120c0-110,2-124,23-151c22-30,22-33,25-445
		l3-414h-101h-100v398v399l25,49c22,44,25,61,25,167v117h-265H810v-120c0-110,2-124,23-151c22-30,22-33,25-445l3-415l-98,3l-98,3
		l-3,383c-2,385,2,444,33,476c12,11,15,43,15,140v126H445H180V9350z"/>
	<path d="M2080,9160v-310h155h155v135c0,131,1,137,25,160c13,14,29,25,35,25c11,0,15-703,4-758c-3-17-15-40-25-51
		c-17-18-19-36-19-146v-125h265h265v125c0,116-2,127-25,161l-25,37v373c0,236,4,375,10,379c5,3,21-5,35-19c24-24,25-29,25-161v-135
		h155h155v310v310h-595h-595V9160z"/>
	<path d="M3586,9453c-3-10-8-36-11-58c-4-22-17-98-30-170c-35-194-74-407-95-525c-44-246-52-285-66-311c-7-15-18-31-24-34
		c-6-4-10-60-10-136v-129l233,2l232,3l3,111c3,107,2,113-23,142c-18,21-25,42-25,71v42l108-3l107-3l-3-40c-2-22-12-49-23-61
		c-17-18-19-36-19-142v-122h270h270v115c0,111-1,116-30,157c-23,34-35,71-55,168c-13,69-31,157-39,195c-9,39-18,88-22,110
		c-3,22-23,130-45,240c-21,110-47,243-57,295l-18,95l-311,3C3613,9470,3591,9469,3586,9453z M3918,8842c20-125,22-122-48-122
		c-59,0-60,0-60,28c0,16,4,53,10,83c5,30,17,99,25,153c9,55,19,104,23,110C3874,9104,3887,9037,3918,8842z"/>
	<path d="M4560,9160v-310h155h155v134c0,120,2,136,21,160c11,14,27,26,35,26c13,0,14-53,12-389c-3-386-3-390-25-420
		c-21-27-23-41-23-151v-120h265h265v125c0,115-2,128-22,156c-23,30-23,35-26,406c-1,207,1,380,6,385s20-1,35-12c27-21,27-22,27-161
		v-140l158,3l157,3v305v305l-597,3l-598,2V9160z"/>
	<path d="M5108,7669c-98-14-194-76-234-150c-27-50-25-160,4-216c35-67,113-112,222-128c24-3,49-10,55-14c5-5,28-14,50-20
		c56-15,85-44,85-84c-1-63-42-87-148-87c-83,0-150,20-224,65c-31,19-59,35-62,35s-6-42-6-93c0-110-5-104,137-137
		c253-59,468,23,507,194c23,96-2,180-70,231c-36,28-139,68-208,80c-20,4-36,11-36,16s-15,9-34,9c-44,0-86,33-86,69
		c0,66,61,97,174,88c74-6,122-22,187-63c48-30,51-26,47,81l-3,79l-50,18c-27,10-88,23-135,28C5186,7681,5188,7681,5108,7669z"/>
	<path d="M6740,7667c-109-25-190-89-239-190c-101-204-47-485,112-590c75-50,158-71,259-65c178,11,287,88,350,248c29,75,32,270,5,345
		c-44,123-119,202-227,240C6939,7677,6808,7683,6740,7667z M6913,7516c48-20,74-48,99-102c20-42,23-66,23-169c0-111-2-124-27-170
		c-40-75-85-105-161-105c-128,0-197,120-184,321c8,127,53,205,132,231C6830,7533,6879,7531,6913,7516z"/>
	<path d="M157,7653c-4-3-7-188-7-410v-404l238,3c227,3,239,4,282,27c102,53,140,114,140,224c0,69-2,76-34,113c-19,22-54,49-78,59
		c-23,10-44,20-45,20c-2,1,17,22,42,48c105,110,75,261-62,310c-40,14-84,17-259,17C258,7660,160,7657,157,7653z M499,7509
		c76-27,68-138-13-169c-36-13-113-13-122,1c-8,13-6,158,2,171C373,7524,461,7522,499,7509z M563,7179c16-7,30-23,33-38
		c3-14,7-31,9-38c2-6-1-27-6-46c-14-53-49-70-151-75l-88-4v104c0,58,3,108,8,112C379,7206,531,7194,563,7179z"/>
	<path d="M1085,7523c-26-76-51-151-55-168c-5-16-42-127-83-246s-77-228-81-243l-6-26h98h98l25,78l24,77l137,3l137,3l24-78l23-78
		l102-3c56-1,102,1,102,5c0,13-22,79-140,423c-62,179-117,340-123,358l-10,32h-113h-112L1085,7523z M1259,7388c22-57,61-195,61-215
		c0-22-4-23-81-23h-81l5,28c6,30,51,188,62,215C1235,7416,1249,7414,1259,7388z"/>
	<path d="M1730,7250v-410h100h100v151v150l42-3c42-3,44-5,153-150l110-147h124c97-1,121,2,114,12c-30,40-89,114-156,198
		c-42,53-77,101-77,107s-6,13-12,15c-8,4,7,23,39,52c71,63,92,101,99,177c10,105-14,163-91,214c-56,38-104,44-329,44h-216V7250z
		 M2072,7514c21-4,50-18,64-33c23-23,26-32,22-80c-7-76-41-106-129-115c-100-11-99-12-99,113c0,59,3,111,7,114
		C1945,7522,2023,7522,2072,7514z"/>
	<path d="M2560,7249v-410l238,3c235,3,238,3,287,30c96,51,135,115,135,221c0,55-4,70-30,106c-18,24-50,51-75,63c-45,22-57,41-31,51
		c24,9,68,74,77,114c22,94-16,169-108,210c-51,22-64,23-273,23h-220V7249z M2915,7504c33-16,45-37,45-86c0-56-77-96-166-86l-29,3
		l-3,84c-2,61,1,87,10,92C2794,7525,2880,7521,2915,7504z M2972,7180c31-15,41-37,41-93c0-74-65-111-183-105l-65,3l-3,94
		c-4,122-1,125,103,119C2909,7195,2957,7187,2972,7180z"/>
	<path d="M3350,7250v-410h280h281l-3,73l-3,72l-175,5l-175,5v100v100l160,5l160,5l3,82l3,83l-163,2l-163,3v65v65l175,5l175,5v70v70
		l-277,3l-278,2V7250z"/>
	<path d="M4060,7250v-410h100h100v151v150l42-3c41-3,43-5,152-150l111-147l124-1c97,0,121,3,114,13c-6,6-60,76-122,154
		c-61,77-111,146-111,152s-4,11-10,11c-20,0-9,27,16,41c100,53,150,200,108,311c-21,54-63,92-132,118c-47,18-76,20-272,20h-220V7250
		z M4442,7500c36-17,52-59,44-114c-10-65-45-91-130-99c-98-9-96-12-96,112c0,59,3,111,8,115C4278,7526,4410,7515,4442,7500z"/>
	<path d="M5620,7250v-410h100h100v180v181l148-3l147-3l3-177l2-178h100h100l-2,408l-3,407l-97,3l-97,3l-3-143l-3-143h-145h-145
		l-3,143l-3,142h-99h-100V7250z"/>
	<path d="M7380,7250v-410h100h99l3,133l3,132l110,6c107,7,185,27,185,49c0,6,6,10,14,10c19,0,85,75,103,118c23,56,21,177-6,237
		c-24,55-60,85-140,116c-45,17-77,19-261,19h-210V7250z M7758,7490c40-25,55-62,48-118c-11-84-55-115-157-110l-64,3l-3,123l-3,122
		h73C7707,7510,7733,7505,7758,7490z"/>
</g>
</svg>
